<svg width="129" height="28" viewBox="0 0 129 28" fill="none" xmlns="http://www.w3.org/2000/svg">
<circle cx="10.813" cy="10.813" r="10.813" fill="url(#paint0_linear)"/>
<path d="M12.8506 11.7135V11.6493H20.3006V15.8238C20.6859 14.4109 21.3603 13.3084 22.3236 12.5163C23.3084 11.7242 24.4858 11.3281 25.856 11.3281C27.4616 11.3281 28.7139 11.8312 29.6131 12.8374C30.5122 13.8222 30.9618 15.1709 30.9618 16.8835V24.0445C30.9618 25.1791 31.0474 25.9391 31.2187 26.3245C31.3899 26.6884 31.8074 27.0737 32.471 27.4805V27.5447H23.7045V27.4805C24.3681 27.0737 24.7856 26.6884 24.9568 26.3245C25.1281 25.9391 25.2137 25.1791 25.2137 24.0445V16.723C25.2137 15.9095 25.021 15.2672 24.6357 14.7962C24.2504 14.3039 23.7152 14.0577 23.0301 14.0577C22.1738 14.0577 21.4994 14.4323 21.007 15.1816C20.5361 15.9095 20.3006 16.9477 20.3006 18.2965V24.0445C20.3006 25.1791 20.3862 25.9391 20.5575 26.3245C20.7287 26.6884 21.1462 27.0737 21.8098 27.4805V27.5447H13.0433V27.4805C13.7069 27.0737 14.1244 26.6884 14.2956 26.3245C14.4669 25.9391 14.5525 25.1791 14.5525 24.0445V15.2137C14.5525 14.1005 14.4562 13.3512 14.2635 12.9659C14.0708 12.5591 13.5999 12.1416 12.8506 11.7135Z" fill="black"/>
<path d="M32.1629 19.613C32.1629 17.1939 32.9657 15.2137 34.5713 13.6723C36.1769 12.1095 38.1786 11.3281 40.5763 11.3281C42.9526 11.3281 44.8151 12.0025 46.1638 13.3512C47.5125 14.6999 48.1868 16.541 48.1868 18.8745H37.9752C37.9752 20.8226 38.4355 22.3747 39.356 23.5307C40.298 24.6653 41.561 25.2327 43.1452 25.2327C44.1942 25.2327 45.1148 24.9972 45.9069 24.5262C46.699 24.0338 47.3305 23.3166 47.8015 22.3747L48.0263 22.471C47.5767 24.1623 46.6776 25.4896 45.3289 26.4529C44.0016 27.3949 42.4067 27.8658 40.5442 27.8658C38.0822 27.8658 36.0699 27.1059 34.5071 25.5859C32.9443 24.0659 32.1629 22.075 32.1629 19.613ZM40.5763 11.874C39.7842 11.874 39.1633 12.4307 38.7138 13.5439C38.2856 14.6357 38.0501 16.1878 38.0073 18.2001H42.6636C42.6636 15.8238 42.4923 14.1754 42.1498 13.2549C41.8286 12.3343 41.3041 11.874 40.5763 11.874Z" fill="black"/>
<path d="M60.4579 14.4109C60.4579 13.6188 60.2438 12.998 59.8157 12.5484C59.3875 12.0988 58.7881 11.874 58.0174 11.874C56.9684 11.874 56.1549 12.4735 55.5769 13.6723C54.9988 14.8498 54.7098 16.4554 54.7098 18.4891C54.7098 20.6085 55.1487 22.2676 56.0264 23.4665C56.9042 24.6439 58.1137 25.2327 59.6551 25.2327C60.6399 25.2327 61.5176 24.9865 62.2883 24.4941C63.059 24.0017 63.6798 23.2952 64.1508 22.3747L64.3434 22.471C63.9153 24.1408 63.0376 25.4574 61.7103 26.4208C60.4044 27.3842 58.8309 27.8658 56.9898 27.8658C54.6135 27.8658 52.644 27.1273 51.0812 25.6501C49.5184 24.173 48.737 22.2569 48.737 19.9021C48.737 17.3331 49.5933 15.2672 51.306 13.7044C53.0186 12.1202 55.2343 11.3281 57.9532 11.3281C59.7728 11.3281 61.2393 11.7028 62.3525 12.4521C63.4657 13.2013 64.0223 14.2075 64.0223 15.4706C64.0223 16.3483 63.7333 17.0548 63.1553 17.59C62.5987 18.1252 61.8815 18.3928 61.0038 18.3928C60.2331 18.3928 59.5909 18.2215 59.0771 17.879C58.5633 17.5151 58.2743 17.0655 58.21 16.5303C58.2957 16.5517 58.392 16.5731 58.4991 16.5945C58.6061 16.6159 58.7024 16.6266 58.7881 16.6266C59.3233 16.6266 59.73 16.434 60.0083 16.0486C60.308 15.6633 60.4579 15.1174 60.4579 14.4109Z" fill="black"/>
<path d="M73.4542 25.1363C74.1821 25.1363 74.7815 24.8366 75.2525 24.2372C75.7449 23.6378 76.0981 22.7707 76.3122 21.6361L76.6975 21.7646C76.4192 23.7555 75.7877 25.2755 74.8029 26.3245C73.8182 27.3521 72.5123 27.8658 70.8853 27.8658C69.2797 27.8658 68.0166 27.3949 67.0961 26.4529C66.1969 25.4896 65.7581 24.1516 65.7795 22.4389L65.8437 12.4521H64.1096V12.0988C65.8223 11.7349 67.2887 11.0284 68.509 9.97944C69.7506 8.93044 70.6498 7.62455 71.2064 6.06177H71.5275V11.6493H76.3443L76.1838 12.4521H71.5275V22.5674C71.5275 23.4023 71.6881 24.0445 72.0092 24.4941C72.3517 24.9222 72.8334 25.1363 73.4542 25.1363Z" fill="black"/>
<path d="M94.3672 26.4208C94.4956 26.4208 94.6241 26.4101 94.7525 26.3887C94.881 26.3673 94.9987 26.3352 95.1058 26.2924V26.3566C94.699 26.8061 94.1424 27.1701 93.436 27.4484C92.7295 27.7053 91.9909 27.8337 91.2202 27.8337C90 27.8337 89.0259 27.5875 88.298 27.0952C87.5916 26.6028 87.1634 25.8963 87.0135 24.9758C87.0135 24.9329 87.0028 24.8045 86.9814 24.5904C86.96 24.3549 86.9493 24.2051 86.9493 24.1408C86.6924 25.2541 86.093 26.1425 85.151 26.8061C84.2305 27.4484 83.1066 27.7695 81.7793 27.7695C80.3663 27.7695 79.221 27.4163 78.3433 26.7098C77.4656 25.9819 77.0267 24.9972 77.0267 23.7555C77.0267 22.8778 77.2408 22.1285 77.6689 21.5077C78.0971 20.8868 78.7607 20.373 79.6599 19.9663C80.1523 19.7522 80.7303 19.5595 81.3939 19.3883C82.0576 19.1956 83.0745 18.9708 84.4446 18.7139L86.8851 18.2643V15.1495C86.8851 14.1433 86.671 13.3512 86.2429 12.7732C85.8361 12.1952 85.2367 11.9062 84.4446 11.9062C83.7381 11.9062 83.1815 12.1309 82.7748 12.5805C82.368 13.0087 82.1646 13.5974 82.1646 14.3467C82.1646 14.9889 82.2931 15.4813 82.55 15.8238C82.8283 16.1449 83.2136 16.3055 83.706 16.3055C83.7916 16.3055 83.888 16.3055 83.995 16.3055C84.1021 16.2841 84.2091 16.252 84.3161 16.2092C83.995 16.83 83.5347 17.301 82.9353 17.6221C82.3573 17.9432 81.6722 18.1038 80.8801 18.1038C80.0024 18.1038 79.2745 17.8576 78.6965 17.3652C78.1185 16.8514 77.8295 16.1985 77.8295 15.4064C77.8295 14.1861 78.4503 13.2013 79.692 12.4521C80.9337 11.7028 82.5714 11.3281 84.6051 11.3281C87.3668 11.3281 89.3898 11.7884 90.6743 12.709C91.9588 13.6081 92.601 15.021 92.601 16.9478C92.601 17.2689 92.601 17.6328 92.601 18.0396C92.601 18.4249 92.5903 19.0136 92.5689 19.8057C92.5475 20.6834 92.5368 21.3578 92.5368 21.8288C92.5368 22.2998 92.5368 22.7493 92.5368 23.1775C92.5368 24.4406 92.676 25.2969 92.9543 25.7464C93.2326 26.196 93.7035 26.4208 94.3672 26.4208ZM86.853 22.2462L86.8851 18.8424L85.5364 19.1635C84.5302 19.3562 83.7916 19.7629 83.3207 20.3837C82.8497 20.9832 82.6142 21.8181 82.6142 22.8885C82.6142 23.7234 82.7748 24.3763 83.0959 24.8473C83.417 25.3183 83.8773 25.5538 84.4767 25.5538C85.1832 25.5538 85.7505 25.2434 86.1786 24.6225C86.6282 24.0017 86.853 23.2096 86.853 22.2462Z" fill="black"/>
<path d="M106.969 18.2965C106.733 18.2965 106.509 18.2643 106.295 18.2001C106.08 18.1359 105.92 18.061 105.813 17.9753C106.134 17.8469 106.38 17.6435 106.551 17.3652C106.744 17.0869 106.84 16.7658 106.84 16.4018C106.84 15.8238 106.669 15.385 106.327 15.0853C105.984 14.7641 105.492 14.6036 104.85 14.6036C103.972 14.6036 103.233 15.021 102.634 15.8559C102.056 16.6909 101.767 17.772 101.767 19.0993V24.0445C101.767 24.9436 101.917 25.6287 102.216 26.0997C102.516 26.5493 103.19 27.0095 104.239 27.4805V27.5447H94.5094V27.4805C95.1731 27.0737 95.5905 26.6884 95.7618 26.3245C95.9331 25.9391 96.0187 25.1791 96.0187 24.0445V15.2137C96.0187 14.1005 95.9224 13.3512 95.7297 12.9659C95.537 12.5591 95.066 12.1416 94.3168 11.7135V11.6493H101.767V16.8193C102.259 14.9996 102.923 13.6295 103.758 12.709C104.614 11.7884 105.642 11.3281 106.84 11.3281C107.847 11.3281 108.671 11.6386 109.313 12.2594C109.955 12.8802 110.276 13.683 110.276 14.6678C110.276 15.7596 109.966 16.6373 109.345 17.301C108.724 17.9646 107.932 18.2965 106.969 18.2965Z" fill="black"/>
<path d="M127.342 26.4208C127.471 26.4208 127.599 26.4101 127.728 26.3887C127.856 26.3673 127.974 26.3352 128.081 26.2924V26.3566C127.674 26.8061 127.118 27.1701 126.411 27.4484C125.705 27.7053 124.966 27.8337 124.195 27.8337C122.975 27.8337 122.001 27.5875 121.273 27.0952C120.567 26.6028 120.138 25.8963 119.989 24.9758C119.989 24.9329 119.978 24.8045 119.957 24.5904C119.935 24.3549 119.924 24.2051 119.924 24.1408C119.668 25.2541 119.068 26.1425 118.126 26.8061C117.206 27.4484 116.082 27.7695 114.754 27.7695C113.341 27.7695 112.196 27.4163 111.318 26.7098C110.441 25.9819 110.002 24.9972 110.002 23.7555C110.002 22.8778 110.216 22.1285 110.644 21.5077C111.072 20.8868 111.736 20.373 112.635 19.9663C113.127 19.7522 113.705 19.5595 114.369 19.3883C115.033 19.1956 116.05 18.9708 117.42 18.7139L119.86 18.2643V15.1495C119.86 14.1433 119.646 13.3512 119.218 12.7732C118.811 12.1952 118.212 11.9062 117.42 11.9062C116.713 11.9062 116.157 12.1309 115.75 12.5805C115.343 13.0087 115.14 13.5974 115.14 14.3467C115.14 14.9889 115.268 15.4813 115.525 15.8238C115.803 16.1449 116.189 16.3055 116.681 16.3055C116.767 16.3055 116.863 16.3055 116.97 16.3055C117.077 16.2841 117.184 16.252 117.291 16.2092C116.97 16.83 116.51 17.301 115.91 17.6221C115.332 17.9432 114.647 18.1038 113.855 18.1038C112.978 18.1038 112.25 17.8576 111.672 17.3652C111.094 16.8514 110.805 16.1985 110.805 15.4064C110.805 14.1861 111.425 13.2013 112.667 12.4521C113.909 11.7028 115.546 11.3281 117.58 11.3281C120.342 11.3281 122.365 11.7884 123.649 12.709C124.934 13.6081 125.576 15.021 125.576 16.9478C125.576 17.2689 125.576 17.6328 125.576 18.0396C125.576 18.4249 125.565 19.0136 125.544 19.8057C125.523 20.6834 125.512 21.3578 125.512 21.8288C125.512 22.2998 125.512 22.7493 125.512 23.1775C125.512 24.4406 125.651 25.2969 125.929 25.7464C126.208 26.196 126.679 26.4208 127.342 26.4208ZM119.828 22.2462L119.86 18.8424L118.511 19.1635C117.505 19.3562 116.767 19.7629 116.296 20.3837C115.825 20.9832 115.589 21.8181 115.589 22.8885C115.589 23.7234 115.75 24.3763 116.071 24.8473C116.392 25.3183 116.852 25.5538 117.452 25.5538C118.158 25.5538 118.726 25.2434 119.154 24.6225C119.603 24.0017 119.828 23.2096 119.828 22.2462Z" fill="black"/>
<defs>
<linearGradient id="paint0_linear" x1="10.813" y1="0" x2="10.813" y2="21.626" gradientUnits="userSpaceOnUse">
<stop stop-color="#FFE178"/>
<stop offset="1" stop-color="#FB9701"/>
</linearGradient>
</defs>
</svg>
